<?xml version="1.0" encoding="UTF-8" standalone="no"?>
<!-- Created with Inkscape (http://www.inkscape.org/) -->

<svg
   xmlns:dc="http://purl.org/dc/elements/1.1/"
   xmlns:cc="http://creativecommons.org/ns#"
   xmlns:rdf="http://www.w3.org/1999/02/22-rdf-syntax-ns#"
   xmlns:svg="http://www.w3.org/2000/svg"
   xmlns="http://www.w3.org/2000/svg"
   xmlns:sodipodi="http://sodipodi.sourceforge.net/DTD/sodipodi-0.dtd"
   xmlns:inkscape="http://www.inkscape.org/namespaces/inkscape"
   id="svg2"
   viewBox="0 0 247 333.56"
   version="1.0"
   inkscape:version="0.91 r13725"
   sodipodi:docname="wombat.svg">
  <defs
     id="defs41" />
  <sodipodi:namedview
     pagecolor="#ffffff"
     bordercolor="#666666"
     borderopacity="1"
     objecttolerance="10"
     gridtolerance="10"
     guidetolerance="10"
     inkscape:pageopacity="0"
     inkscape:pageshadow="2"
     inkscape:window-width="1199"
     inkscape:window-height="809"
     id="namedview39"
     showgrid="false"
     inkscape:zoom="0.70751889"
     inkscape:cx="123.34639"
     inkscape:cy="204.15635"
     inkscape:window-x="0"
     inkscape:window-y="0"
     inkscape:window-maximized="0"
     inkscape:current-layer="svg2"
     showguides="true"
     inkscape:guide-bbox="true" />
  <path
     inkscape:connector-curvature="0"
     d="m 244.999,204.82 a 121.5,121.5 0 0 1 -243,0 121.5,121.5 0 1 1 243,0 z"
     style="fill:#9e6b48;stroke:#000000;stroke-width:4;stroke-linecap:round;stroke-linejoin:round;fill-opacity:1"
     id="path2385" />
  <path
     inkscape:connector-curvature="0"
     d="m 123.5,83.33 c -12.93,0 -25.38,2.04 -37.07,5.78 10.52,-2.46 21.61,-3.78 33.07,-3.78 31.43,0 60.1,9.88 81.68,26.09 C 180.12,93.88 153.03,83.33 123.5,83.33 Z m 115.06,82.37 c 1.59,6.49 2.44,13.19 2.44,20.07 0,55.44 -54.44,100.43 -121.5,100.43 -56.09,0 -103.31,-31.46 -117.28,-74.18 3.72,63.72 56.62,114.31 121.28,114.31 67.06,0 121.5,-54.43 121.5,-121.5 0,-13.68 -2.26,-26.85 -6.44,-39.13 z"
     style="fill:#000000;fill-opacity:0.31373004"
     id="path3276" />
  <g
     id="g3416">
    <path
       id="path3163"
       style="fill:#6e4529;stroke:#000000;stroke-width:2.56413078;stroke-linecap:round;stroke-linejoin:round;fill-opacity:1"
       d="m 176.36811,284.4391 c -19.4874,0 -35.3145,15.8271 -35.3145,35.31449 0,4.0321 0.6795,7.89111 1.9231,11.50013 l 66.76356,0 c 1.25001,-3.60902 1.9231,-7.46803 1.9231,-11.50013 0,-19.48739 -15.80146,-35.31449 -35.29526,-35.31449 z"
       inkscape:connector-curvature="0" />
    <path
       id="path3226"
       style="fill:#502d16;stroke:#000000;stroke-width:2.35406184;stroke-linecap:round;stroke-linejoin:round"
       d="m 175.36966,321.06771 a 9.455265,11.218073 0 0 1 -18.91053,0 9.455265,11.218073 0 1 1 18.91053,0 z"
       inkscape:connector-curvature="0" />
    <path
       id="path3228"
       style="fill:#502d16;stroke:#000000;stroke-width:2.35406184;stroke-linecap:round;stroke-linejoin:round"
       d="m 199.08787,321.06771 a 9.455265,11.218073 0 0 1 -18.91053,0 9.455265,11.218073 0 1 1 18.91053,0 z"
       inkscape:connector-curvature="0" />
    <path
       id="path3230"
       style="fill:#502d16;stroke:#000000;stroke-width:2.35406184;stroke-linecap:round;stroke-linejoin:round"
       d="m 187.8698,321.06771 a 9.455265,11.218073 0 0 1 -18.91053,0 9.455265,11.218073 0 1 1 18.91053,0 z"
       inkscape:connector-curvature="0" />
  </g>
  <g
     id="g3409"
     transform="translate(62.189152,19.787457)">
    <path
       id="path3244"
       style="fill:#000000;fill-opacity:0.31373004"
       d="m 181.40672,186.86798 a 22.978685,22.978685 0 1 1 -45.95737,0 22.978685,22.978685 0 1 1 45.95737,0 z"
       inkscape:connector-curvature="0" />
    <path
       id="path3161"
       style="fill:#6e4529;stroke:#000000;stroke-width:3.9999938;stroke-linecap:round;stroke-linejoin:round;fill-opacity:1"
       d="m 174.61874,193.3363 c -6.34526,10.99064 -20.39876,14.75644 -31.38939,8.41119 -10.99063,-6.34526 -14.75646,-20.39875 -8.4112,-31.38939 6.34526,-10.99064 26.39527,-24.25091 37.3859,-17.90565 10.99062,6.34525 8.75995,29.89321 2.41469,40.88385 z"
       inkscape:connector-curvature="0"
       sodipodi:nodetypes="sssss" />
    <path
       id="path3270"
       style="fill:#502d16;stroke:#000000;stroke-width:3.6722784;stroke-linecap:round;stroke-linejoin:round"
       d="m 148.24423,187.78772 a 7.9079067,8.9999069 60.000017 1 0 7.9079,13.6969 7.9079067,8.9999069 60.000017 0 0 -7.9079,-13.6969 z"
       inkscape:connector-curvature="0" />
    <path
       id="path3272"
       style="fill:#502d16;stroke:#000000;stroke-width:3.6722784;stroke-linecap:round;stroke-linejoin:round"
       d="m 138.32423,170.60772 a 7.9079067,8.9999069 60.000017 1 0 7.9079,13.6969 7.9079067,8.9999069 60.000017 0 0 -7.9079,-13.6969 z"
       inkscape:connector-curvature="0" />
    <path
       id="path3274"
       style="fill:#502d16;stroke:#000000;stroke-width:3.6722784;stroke-linecap:round;stroke-linejoin:round"
       d="m 139.03423,181.62772 a 7.9079067,8.9999069 60.000017 1 0 7.9079,13.6969 7.9079067,8.9999069 60.000017 0 0 -7.9079,-13.6969 z"
       inkscape:connector-curvature="0" />
  </g>
  <metadata
     id="metadata37">
    <rdf:RDF>
      <cc:Work>
        <dc:format>image/svg+xml</dc:format>
        <dc:type
           rdf:resource="http://purl.org/dc/dcmitype/StillImage" />
        <cc:license
           rdf:resource="http://creativecommons.org/licenses/publicdomain/" />
        <dc:publisher>
          <cc:Agent
             rdf:about="http://openclipart.org/">
            <dc:title>Openclipart</dc:title>
          </cc:Agent>
        </dc:publisher>
        <dc:title>Cartoon bear</dc:title>
        <dc:date>2008-07-11T09:24:41</dc:date>
        <dc:description />
        <dc:source>https://openclipart.org/detail/17702/cartoon-bear-by-lemmling</dc:source>
        <dc:creator>
          <cc:Agent>
            <dc:title>lemmling</dc:title>
          </cc:Agent>
        </dc:creator>
        <dc:subject>
          <rdf:Bag>
            <rdf:li>animal</rdf:li>
            <rdf:li>bear</rdf:li>
            <rdf:li>cartoon</rdf:li>
            <rdf:li>colour</rdf:li>
            <rdf:li>how i did it</rdf:li>
            <rdf:li>mammal</rdf:li>
          </rdf:Bag>
        </dc:subject>
      </cc:Work>
      <cc:License
         rdf:about="http://creativecommons.org/licenses/publicdomain/">
        <cc:permits
           rdf:resource="http://creativecommons.org/ns#Reproduction" />
        <cc:permits
           rdf:resource="http://creativecommons.org/ns#Distribution" />
        <cc:permits
           rdf:resource="http://creativecommons.org/ns#DerivativeWorks" />
      </cc:License>
    </rdf:RDF>
  </metadata>
  <g
     id="g3422"
     transform="translate(-99.306084,1.4133898)">
    <path
       inkscape:connector-curvature="0"
       d="m 176.36811,284.4391 c -19.4874,0 -35.3145,15.8271 -35.3145,35.31449 0,4.0321 0.6795,7.89111 1.9231,11.50013 l 66.76356,0 c 1.25001,-3.60902 1.9231,-7.46803 1.9231,-11.50013 0,-19.48739 -15.80146,-35.31449 -35.29526,-35.31449 z"
       style="fill:#6e4529;stroke:#000000;stroke-width:2.56413078;stroke-linecap:round;stroke-linejoin:round;fill-opacity:1"
       id="path3424" />
    <path
       inkscape:connector-curvature="0"
       d="m 175.36966,321.06771 a 9.455265,11.218073 0 0 1 -18.91053,0 9.455265,11.218073 0 1 1 18.91053,0 z"
       style="fill:#502d16;stroke:#000000;stroke-width:2.35406184;stroke-linecap:round;stroke-linejoin:round"
       id="path3426" />
    <path
       inkscape:connector-curvature="0"
       d="m 199.08787,321.06771 a 9.455265,11.218073 0 0 1 -18.91053,0 9.455265,11.218073 0 1 1 18.91053,0 z"
       style="fill:#502d16;stroke:#000000;stroke-width:2.35406184;stroke-linecap:round;stroke-linejoin:round"
       id="path3428" />
    <path
       inkscape:connector-curvature="0"
       d="m 187.8698,321.06771 a 9.455265,11.218073 0 0 1 -18.91053,0 9.455265,11.218073 0 1 1 18.91053,0 z"
       style="fill:#502d16;stroke:#000000;stroke-width:2.35406184;stroke-linecap:round;stroke-linejoin:round"
       id="path3430" />
  </g>
  <g
     transform="matrix(-1,0,0,1,183.45795,20.372902)"
     id="g4508">
    <path
       inkscape:connector-curvature="0"
       d="m 181.40672,186.86798 a 22.978685,22.978685 0 1 1 -45.95737,0 22.978685,22.978685 0 1 1 45.95737,0 z"
       style="fill:#000000;fill-opacity:0.31373004"
       id="path4510" />
    <path
       sodipodi:nodetypes="sssss"
       inkscape:connector-curvature="0"
       d="m 174.61874,193.3363 c -6.34526,10.99064 -20.39876,14.75644 -31.38939,8.41119 -10.99063,-6.34526 -14.75646,-20.39875 -8.4112,-31.38939 6.34526,-10.99064 26.39527,-24.25091 37.3859,-17.90565 10.99062,6.34525 8.75995,29.89321 2.41469,40.88385 z"
       style="fill:#6e4529;stroke:#000000;stroke-width:3.9999938;stroke-linecap:round;stroke-linejoin:round;fill-opacity:1"
       id="path4512" />
    <path
       inkscape:connector-curvature="0"
       d="m 148.24423,187.78772 a 7.9079067,8.9999069 60.000017 1 0 7.9079,13.6969 7.9079067,8.9999069 60.000017 0 0 -7.9079,-13.6969 z"
       style="fill:#502d16;stroke:#000000;stroke-width:3.6722784;stroke-linecap:round;stroke-linejoin:round"
       id="path4514" />
    <path
       inkscape:connector-curvature="0"
       d="m 138.32423,170.60772 a 7.9079067,8.9999069 60.000017 1 0 7.9079,13.6969 7.9079067,8.9999069 60.000017 0 0 -7.9079,-13.6969 z"
       style="fill:#502d16;stroke:#000000;stroke-width:3.6722784;stroke-linecap:round;stroke-linejoin:round"
       id="path4516" />
    <path
       inkscape:connector-curvature="0"
       d="m 139.03423,181.62772 a 7.9079067,8.9999069 60.000017 1 0 7.9079,13.6969 7.9079067,8.9999069 60.000017 0 0 -7.9079,-13.6969 z"
       style="fill:#502d16;stroke:#000000;stroke-width:3.6722784;stroke-linecap:round;stroke-linejoin:round"
       id="path4518" />
  </g>
  <g
     id="g4549"
     transform="translate(2,0)">
    <path
       id="path3302"
       style="fill:#000000;fill-opacity:0.31373004"
       d="m 123.49,83.34 c -24.51,0 -47.32,7.25 -66.408,19.75 8.652,30.48 36.668,52.84 69.908,52.84 31.77,0 58.8,-20.42 68.69,-48.84 C 175.49,92.15 150.51,83.34 123.49,83.34 Z"
       inkscape:connector-curvature="0" />
    <path
       sodipodi:nodetypes="scssssssscccccscccccccccccccccscscs"
       id="path2479"
       style="fill:#9e6b48;fill-opacity:1;stroke:#000000;stroke-width:4.64300013;stroke-linecap:round;stroke-linejoin:round;stroke-miterlimit:4;stroke-dasharray:none"
       d="m 43.108822,10.839471 c 3.636518,14.940668 4.975017,26.300031 5.203575,40.041165 0.04293,1.84701 -2.252638,4.501718 -2.289452,6.216072 -0.03681,1.714355 3.068492,3.901747 2.9594,5.520818 -0.109092,1.619071 -4.749834,3.324771 -4.923737,4.885929 -0.173902,1.561159 4.119035,2.977776 3.887789,4.518393 -0.231246,1.540616 -6.61073,3.080305 -6.891853,4.63775 -0.281123,1.557445 5.536115,3.132647 5.212582,4.744292 -0.323533,1.611645 -6.623718,5.215699 -6.982195,6.918914 -0.358476,1.703215 4.164716,4.685718 3.778763,6.517874 -0.868771,4.120761 -5.100709,5.241962 -5.82645,9.055032 0,2.91191 3.735118,6.46304 3.736286,8.98506 0.01854,4.57836 -5.43066,5.29582 -4.990165,9.5602 0.207016,1.96907 4.565061,7.95296 4.976756,9.75897 0.660698,2.95596 -4.358195,6.4887 -5.10044,9.33423 -0.742245,2.84553 2.792158,5.00385 4.568767,7.20981 53.615686,14.5025 96.278182,16.83372 160.193262,-3.01367 -3.33148,-6.64464 -5.28132,-10.34664 -5.28132,-10.34664 0.48986,-2.4704 6.10357,-4.96245 6.14718,-7.30237 -8.59049,-10.55865 -2.69727,-7.67471 -0.60062,-14.97115 -0.024,-1.33389 -5.16204,-5.1993 -5.16204,-6.65526 -0.80217,-3.12229 3.95664,-7.60308 3.34844,-10.551005 -0.83447,-4.072207 -5.56466,-5.603413 -6.02193,-9.553751 -0.39177,-3.646969 5.54784,-3.243781 5.50603,-6.628374 -0.0125,-1.068512 -5.83561,-5.292679 -5.81036,-6.314515 0.053,-2.024393 2.82562,-3.668865 3.00837,-5.547114 0.0923,-0.942088 -4.21681,-3.79216 -4.09511,-4.701174 0.23862,-1.82695 2.50509,-3.427405 2.83032,-5.110701 0.345,-1.738221 -1.18868,-3.604874 -0.78748,-5.203174 0.43062,-1.684019 0.90353,-3.32439 1.35823,-4.874433 3.73451,-12.831031 8.1296,-22.694088 9.56693,-35.003127 1.55259,-13.296095 -33.52545,17.158577 -45.05505,21.226353 -12.25823,-6.94053 -22.42021,-10.918652 -37.49923,-10.918652 -15.07903,0 -25.206179,3.981605 -37.464415,10.918652 C 66.569864,28.195478 39.612865,-3.5236995 43.108822,10.839471 Z"
       inkscape:connector-curvature="0" />
    <g
       transform="translate(17.667373,0)"
       id="g3631">
      <path
         inkscape:connector-curvature="0"
         d="m 155.28641,82.271322 a 16.93944,16.93944 0 1 1 -33.87887,0 16.93944,16.93944 0 1 1 33.87887,0 z"
         style="fill:#ffffff;stroke:#000000;stroke-width:3.31112695;stroke-linecap:round;stroke-linejoin:round"
         id="path3179" />
      <path
         inkscape:connector-curvature="0"
         d="m 143.88583,86.187042 a 6.61,6.61 0 0 1 -13.22,0 6.61,6.61 0 1 1 13.22,0 z"
         style="fill:#000000"
         id="path3183" />
    </g>
    <path
       sodipodi:nodetypes="cczzc"
       inkscape:connector-curvature="0"
       id="path4545"
       d="m 113.45489,138.83416 23.20962,0 c 0,0 2.03787,8.4193 -1.58608,11.88173 -3.62395,3.46241 -16.35395,3.46241 -19.97792,0 -3.62394,-3.46243 -1.64562,-11.88173 -1.64562,-11.88173 z"
       style="opacity:1;fill:#3f2a15;fill-opacity:1;stroke:#000000;stroke-width:4.64300013;stroke-linejoin:round;stroke-miterlimit:4;stroke-dasharray:none;stroke-dashoffset:0;stroke-opacity:1" />
    <path
       sodipodi:nodetypes="ccsc"
       id="path3192"
       style="fill:#000000;fill-rule:evenodd"
       d="m 95.907869,109.79324 c 9.249421,-9.62513 48.128941,-9.67707 56.792501,1.19449 2.1638,16.91643 -16.82421,39.11631 -28.40513,38.53515 -9.8077,-0.49217 -32.783359,-27.60668 -28.387371,-39.72964 z"
       inkscape:connector-curvature="0" />
    <g
       transform="translate(-8.4803389,-2.1200847)"
       id="g3635">
      <path
         inkscape:connector-curvature="0"
         d="m 117.76458,82.271322 a 16.93944,16.93944 0 1 1 -33.878876,0 16.93944,16.93944 0 1 1 33.878876,0 z"
         style="fill:#ffffff;stroke:#000000;stroke-width:3.31112695;stroke-linecap:round;stroke-linejoin:round"
         id="path3177" />
      <path
         inkscape:connector-curvature="0"
         d="m 109.47083,86.187042 a 6.6100015,6.6100015 0 0 1 -13.220003,0 6.6100015,6.6100015 0 1 1 13.220003,0 z"
         style="fill:#000000"
         id="path2515" />
    </g>
    <path
       inkscape:connector-curvature="0"
       d="m 48.312397,50.880636 c 0.04293,1.84701 -2.252638,4.501718 -2.289452,6.216072 -0.03681,1.714355 3.068492,3.901747 2.9594,5.520818 -0.109092,1.619071 -4.749834,3.324771 -4.923737,4.885929 -0.173902,1.561159 4.119035,2.977776 3.887789,4.518393 -0.231246,1.540616 -6.61073,3.080305 -6.891853,4.63775 -0.281123,1.557445 5.536115,3.132647 5.212582,4.744292 -0.323533,1.611645 -6.623718,5.215699 -6.982195,6.918914 -0.358476,1.703215 4.164716,4.685718 3.778763,6.517874 -0.868771,4.120761 -5.100709,5.241962 -5.82645,9.055032 0,2.91191 3.735118,6.46304 3.736286,8.98506 0.01854,4.57836 -5.43066,5.29582 -4.990165,9.5602 0.207016,1.96907 4.565061,7.95296 4.976756,9.75897 0.660698,2.95596 -4.358195,6.4887 -5.10044,9.33423 -0.742245,2.84553 2.792158,5.00385 4.568767,7.20981 53.615686,14.5025 96.278182,16.83372 160.193262,-3.01367 -3.33148,-6.64464 -5.28132,-10.34664 -5.28132,-10.34664 0.48986,-2.4704 6.10357,-4.96245 6.14718,-7.30237 -8.59049,-10.55865 -2.69727,-7.67471 -0.60062,-14.97115 -0.024,-1.33389 -5.16204,-5.1993 -5.16204,-6.65526 -0.80217,-3.12229 3.95664,-7.60308 3.34844,-10.551005 -0.83447,-4.072207 -5.56466,-5.603413 -6.02193,-9.553751 -0.39177,-3.646969 5.54784,-3.243781 5.50603,-6.628374 -0.0125,-1.068512 -5.83561,-5.292679 -5.81036,-6.314515 0.053,-2.024393 2.82562,-3.668865 3.00837,-5.547114 0.0923,-0.942088 -4.21681,-3.79216 -4.09511,-4.701174 0.23862,-1.82695 2.50509,-3.427405 2.83032,-5.110701 0.345,-1.738221 -1.18868,-3.604874 -0.78748,-5.203174 0.43062,-1.684019 0.90353,-3.32439 1.35823,-4.874433 C 193.52258,202.52859 41.297603,184.1908 48.312397,50.880636 Z"
       style="fill:#000000;fill-opacity:0.31372549;stroke:none;stroke-width:4.64327097;stroke-linecap:round;stroke-linejoin:round"
       id="path4547"
       sodipodi:nodetypes="cssssssscccccscccccccccccccccc" />
  </g>
</svg>
